<?xml version="1.0" standalone="no"?><!DOCTYPE svg PUBLIC "-//W3C//DTD SVG 1.1//EN" "http://www.w3.org/Graphics/SVG/1.1/DTD/svg11.dtd"><svg t="1586156831916" class="icon" viewBox="0 0 1024 1024" version="1.1" xmlns="http://www.w3.org/2000/svg" p-id="2834" xmlns:xlink="http://www.w3.org/1999/xlink" width="200" height="200"><defs><style type="text/css"></style></defs><path d="M367.1 624.1H111.2c-7.3 0-13.2 5.9-13.2 13.2v255.9c0 7.3 5.9 13.2 13.2 13.2h255.9c7.3 0 13.2-5.9 13.2-13.2V637.4c0.1-7.3-5.9-13.3-13.2-13.3zM329 855.2H149.3V675.5H329v179.7zM914.8 624.1H658.9c-7.3 0-13.2 5.9-13.2 13.2v255.9c0 7.3 5.9 13.2 13.2 13.2h255.9c7.3 0 13.2-5.9 13.2-13.2V637.4c0-7.3-5.9-13.3-13.2-13.3z m-38.1 231.1H697V675.5h179.7v179.7zM371 130.3v255.9c0 7.3 5.9 13.2 13.2 13.2h255.9c7.3 0 13.2-5.9 13.2-13.2V130.3c0-7.3-5.9-13.2-13.2-13.2H384.3c-7.3 0-13.3 5.9-13.3 13.2z m231.1 217.8H422.4V168.4h179.7v179.7zM220 471.5h585.1v40.1H220z" p-id="2835"></path><path d="M764.9 511.6H805v120.2h-40.1zM220 511.6h40.1v120.2H220zM491.1 394.5h40.1v80.1h-40.1z" p-id="2836"></path></svg>