<?xml version="1.0" standalone="no"?><!DOCTYPE svg PUBLIC "-//W3C//DTD SVG 1.1//EN" "http://www.w3.org/Graphics/SVG/1.1/DTD/svg11.dtd"><svg t="1591778507756" class="icon" viewBox="0 0 1024 1024" version="1.1" xmlns="http://www.w3.org/2000/svg" p-id="2737" xmlns:xlink="http://www.w3.org/1999/xlink" width="200" height="200"><defs><style type="text/css"></style></defs><path d="M739.2 777.6c-57.6 57.6-137.6 96-227.2 96s-169.6-35.2-227.2-96C227.2 716.8 192 636.8 192 547.2s35.2-169.6 92.8-227.2c57.6-57.6 137.6-96 227.2-96s169.6 35.2 227.2 96h3.2c57.6 57.6 92.8 137.6 92.8 227.2-3.2 89.6-38.4 169.6-96 230.4z m67.2-524.8C729.6 176 627.2 128 512 128c-115.2 0-217.6 48-294.4 121.6C144 326.4 96 432 96 547.2c0 115.2 48 220.8 121.6 297.6 76.8 76.8 179.2 124.8 294.4 124.8 115.2 0 217.6-48 294.4-121.6 76.8-76.8 121.6-182.4 121.6-297.6 0-118.4-44.8-220.8-121.6-297.6zM121.6 291.2c9.6-12.8 16-25.6 25.6-35.2 9.6-9.6 19.2-22.4 28.8-32 9.6-9.6 22.4-19.2 32-28.8 9.6-9.6 22.4-19.2 35.2-25.6 12.8-9.6 25.6-19.2 38.4-25.6l38.4-19.2c16-6.4 22.4-25.6 16-41.6-6.4-16-25.6-22.4-41.6-16-12.8 6.4-28.8 12.8-41.6 19.2-16 9.6-32 19.2-44.8 28.8l-38.4 28.8c-12.8 9.6-25.6 22.4-35.2 32-12.8 12.8-22.4 22.4-32 38.4-16 12.8-25.6 28.8-32 41.6-9.6 12.8-6.4 32 6.4 44.8 16 9.6 35.2 3.2 44.8-9.6z m832-35.2c-9.6-12.8-19.2-25.6-28.8-41.6-9.6-12.8-22.4-25.6-32-38.4-12.8-12.8-22.4-22.4-35.2-32-12.8-9.6-25.6-22.4-38.4-28.8-12.8-9.6-28.8-19.2-41.6-25.6-12.8-6.4-28.8-16-44.8-22.4-16-6.4-35.2 0-41.6 16-6.4 16 0 35.2 16 41.6l38.4 19.2c9.6 6.4 22.4 16 35.2 22.4 12.8 9.6 22.4 16 35.2 25.6 9.6 9.6 22.4 19.2 32 28.8 9.6 12.8 22.4 22.4 28.8 32 9.6 9.6 19.2 22.4 25.6 35.2 9.6 16 28.8 19.2 44.8 9.6 12.8-9.6 16-28.8 6.4-41.6z m-278.4 259.2h-147.2v-256c0-19.2-12.8-32-32-32-16 0-32 12.8-32 32V544c0 19.2 12.8 32 32 32h179.2c16 0 32-12.8 32-32 0-16-16-28.8-32-28.8z" p-id="2738"></path></svg>