<?xml version="1.0" standalone="no"?><!DOCTYPE svg PUBLIC "-//W3C//DTD SVG 1.1//EN" "http://www.w3.org/Graphics/SVG/1.1/DTD/svg11.dtd"><svg t="1588227907555" class="icon" viewBox="0 0 1024 1024" version="1.1" xmlns="http://www.w3.org/2000/svg" p-id="3546" xmlns:xlink="http://www.w3.org/1999/xlink" width="200" height="200"><defs><style type="text/css"></style></defs><path d="M512 0C229.25 0 0 229.25 0 512c0 282.75 229.25 512 512 512 282.75 0 512-229.25 512-512C1024 229.25 794.75 0 512 0z m0 967.125c-251.5 0-455.125-203.625-455.125-455.125 0-251.5 203.625-455.125 455.125-455.125 251.5 0 455.125 203.625 455.125 455.125 0 251.5-203.625 455.125-455.125 455.125z m0 0" fill="#5D5D5D" p-id="3547"></path><path d="M308.875 287.875h90.5v448.25h-90.5V287.875z m494.375 50.625c-17.125-22.75-38.625-37-64.25-43.75-16.5-4.5-52.375-6.875-107.5-6.875h-146.25v448.25H576.25V567.125h59.125c41 0 72.25-2.25 93.875-6.25 15.875-3.375 31.25-10.75 47.25-21 15.375-10.75 27.875-25.625 38.125-44.375s14.75-42.125 14.75-69.375c-0.5-35.875-9-65.5-26.125-87.625z m-77.875 123.5c-6.875 10.25-16.5 17.125-28.5 22.125-12 4.5-35.875 6.875-71.625 6.875H576.25v-127.5h43.75c32.375 0 54.625 1.125 65.375 2.875 14.75 2.875 26.75 9.125 36.375 19.875 9.625 10.75 14.25 23.875 14.25 40.375-0.375 13.75-3.875 25.125-10.625 35.375z m0 0" fill="#5D5D5D" p-id="3548"></path></svg>