<?xml version="1.0" standalone="no"?><!DOCTYPE svg PUBLIC "-//W3C//DTD SVG 1.1//EN" "http://www.w3.org/Graphics/SVG/1.1/DTD/svg11.dtd"><svg t="1588227185828" class="icon" viewBox="0 0 1024 1024" version="1.1" xmlns="http://www.w3.org/2000/svg" p-id="2785" xmlns:xlink="http://www.w3.org/1999/xlink" width="200" height="200"><defs><style type="text/css"></style></defs><path d="M35.4 530.3c-7.2 0-13.9-2.8-19-7.8-5.1-5.1-7.9-11.8-7.9-19s2.8-13.9 7.9-19l329.2-329.2c10.8-10.8 25.1-16.7 40.4-16.7 15.3 0 29.7 5.9 40.4 16.7l192.1 192.2L941.2 24.9c5.1-5.1 11.8-7.9 19-7.9 7.2 0 13.9 2.8 19 7.9 10.5 10.5 10.5 27.5 0 38L659 382.9c-10.8 10.8-25.2 16.8-40.4 16.8-15.3 0-29.6-6-40.4-16.8L385.9 190.7 54.2 522.5c-4.9 5-11.8 7.8-18.8 7.8z" p-id="2786"></path><path d="M970.6 1024c-14.8 0-26.8-12-26.8-26.8V527.8c0-14.8 12-26.8 26.8-26.8s26.8 12 26.8 26.8v469.4c0 14.8-12 26.8-26.8 26.8z m-290.2 0c-14.8 0-26.8-12-26.8-26.8V692.7c0-14.8 12-26.8 26.8-26.8s26.8 12 26.8 26.8v304.5c0 14.8-12 26.8-26.8 26.8z m-294 0c-14.8 0-26.8-12-26.8-26.8V527.8c0-14.8 12-26.8 26.8-26.8s26.8 12 26.8 26.8v469.4c0 14.8-12 26.8-26.8 26.8z m-283.6 0C88 1024 76 1012 76 997.2V730.9c0-14.8 12-26.8 26.8-26.8s26.8 12 26.8 26.8v266.3c0 14.8-12 26.8-26.8 26.8z m885.9-723.6c-14.8 0-26.8-12-26.8-26.8v-220H733.7c-14.8 0-26.8-12-26.8-26.8S718.9 0 733.7 0h255c14.8 0 26.8 12 26.8 26.8v247c0 14.7-12 26.6-26.8 26.6z" p-id="2787"></path></svg>