<?xml version="1.0" standalone="no"?><!DOCTYPE svg PUBLIC "-//W3C//DTD SVG 1.1//EN" "http://www.w3.org/Graphics/SVG/1.1/DTD/svg11.dtd"><svg t="1585103186523" class="icon" viewBox="0 0 1024 1024" version="1.1" xmlns="http://www.w3.org/2000/svg" p-id="1139" xmlns:xlink="http://www.w3.org/1999/xlink" width="200" height="200"><defs><style type="text/css"></style></defs><path d="M811.993 992H212.005c-66.289 0-119.988-53.746-119.988-119.988V272.023c0-66.289 53.699-120.035 119.988-120.035h89.979V92.016h80.828c25.968-35.722 73.813-60.017 129.186-60.017s103.22 24.295 129.187 60.017h80.782v59.972h90.025c66.243 0 119.989 53.746 119.989 120.035v599.989C931.982 938.254 878.236 992 811.993 992zM661.997 151.989h-66.661c0-33.122-37.301-59.972-83.337-59.972-46.035 0-83.337 26.85-83.337 59.972h-66.659v120.035h299.994V151.989z m209.967 120.034c0-33.168-26.85-60.017-59.971-60.017h-90.025v119.988H301.986V212.006h-89.979c-33.121 0-60.018 26.85-60.018 60.017v599.989c0 33.12 26.898 59.97 60.018 59.97h599.988c33.121 0 59.971-26.85 59.971-59.97V272.023h-0.001z m-149.996 539.97H301.986c-16.537 0-29.963-13.425-29.963-30.008 0-16.584 13.425-30.009 29.963-30.009h419.982c16.583 0 30.008 13.425 30.008 30.009-0.001 16.583-13.426 30.008-30.008 30.008z m0-149.997H301.986c-16.537 0-29.963-13.425-29.963-30.008 0-16.537 13.425-30.008 29.963-30.008h419.982c16.583 0 30.008 13.471 30.008 30.008-0.001 16.584-13.426 30.008-30.008 30.008z m0-149.996H301.986c-16.537 0-29.963-13.425-29.963-30.009s13.425-30.009 29.963-30.009h419.982c16.583 0 30.008 13.425 30.008 30.009S738.55 512 721.968 512z" p-id="1140"></path></svg>