<?xml version="1.0" standalone="no"?><!DOCTYPE svg PUBLIC "-//W3C//DTD SVG 1.1//EN" "http://www.w3.org/Graphics/SVG/1.1/DTD/svg11.dtd"><svg t="1586848456575" class="icon" viewBox="0 0 1024 1024" version="1.1" xmlns="http://www.w3.org/2000/svg" p-id="5523" xmlns:xlink="http://www.w3.org/1999/xlink" width="200" height="200"><defs><style type="text/css"></style></defs><path d="M541.866667 614.4c4.266667-12.8 12.8-25.6 17.066666-34.133333l-110.933333-46.933334 115.2-51.2 55.466667 25.6 29.866666-29.866666-64-29.866667V221.866667L409.6 140.8 230.4 221.866667v213.333333l-179.2 81.066667v204.8l179.2 81.066666 170.666667-76.8 102.4 46.933334v-42.666667l-76.8-34.133333v-132.266667l115.2 51.2z m8.533333-183.466667l-119.466667 55.466667v-170.666667l119.466667-55.466666v170.666666zM213.333333 746.666667l-119.466666-55.466667v-128L213.333333 618.666667v128z m-106.666666-217.6l119.466666-55.466667 119.466667 55.466667-119.466667 55.466666-119.466666-55.466666z m264.533333 166.4l-119.466667 55.466666v-128l119.466667-55.466666v128z m21.333333-209.066667l-119.466666-55.466667v-170.666666l119.466666 55.466666v170.666667z m21.333334-200.533333L298.666667 234.666667l115.2-51.2 115.2 51.2-115.2 51.2z m358.4 217.6c-119.466667 0-217.6 98.133333-217.6 217.6s98.133333 217.6 217.6 217.6 217.6-98.133333 217.6-217.6-98.133333-217.6-217.6-217.6z m0 396.8c-98.133333 0-179.2-81.066667-179.2-179.2s81.066667-179.2 179.2-179.2 179.2 81.066667 179.2 179.2c0 98.133333-81.066667 179.2-179.2 179.2z m-29.866667-145.066667L682.666667 695.466667l-38.4 38.4 59.733333 59.733333 38.4 38.4 153.6-153.6-34.133333-38.4-119.466667 115.2z" p-id="5524"></path></svg>