<?xml version="1.0" standalone="no"?><!DOCTYPE svg PUBLIC "-//W3C//DTD SVG 1.1//EN" "http://www.w3.org/Graphics/SVG/1.1/DTD/svg11.dtd"><svg t="1584542412386" class="icon" viewBox="0 0 1024 1024" version="1.1" xmlns="http://www.w3.org/2000/svg" p-id="686" xmlns:xlink="http://www.w3.org/1999/xlink" width="200" height="200"><defs><style type="text/css"></style></defs><path d="M512 450.596l-96.31 95.654-12.28-135.184-135.278 11.36 77.466-111.468-110.934-78.232 130.996-35.576-34.656-131.246 123.216 56.952L512 0.014l57.778 122.842 123.25-56.952-34.688 131.246 130.996 35.576-110.934 78.232 77.466 111.468-135.246-11.36-12.314 135.184z" fill="#F6BB42" p-id="687"></path><path d="M234.664 320.022c0 11.766-9.532 21.328-21.312 21.328s-21.342-9.562-21.342-21.328c0-11.796 9.562-21.344 21.342-21.344s21.312 9.546 21.312 21.344zM320.004 576c0 11.81-9.562 21.342-21.342 21.342s-21.312-9.532-21.312-21.342c0-11.782 9.532-21.312 21.312-21.312s21.342 9.53 21.342 21.312z" fill="#FFCE54" p-id="688"></path><path d="M149.354 234.68c0 11.782-9.562 21.328-21.344 21.328-11.78 0-21.342-9.546-21.342-21.328s9.562-21.326 21.342-21.326c11.782 0 21.344 9.544 21.344 21.326zM831.992 362.678c0 11.78-9.562 21.342-21.344 21.342s-21.312-9.562-21.312-21.342c0-11.782 9.532-21.328 21.312-21.328s21.344 9.546 21.344 21.328zM661.34 618.686c0 11.75-9.562 21.312-21.344 21.312s-21.344-9.562-21.344-21.312c0-11.812 9.562-21.344 21.344-21.344s21.344 9.532 21.344 21.344z" fill="#A0D468" p-id="689"></path><path d="M917.332 277.352c0 11.782-9.562 21.326-21.344 21.326s-21.344-9.544-21.344-21.326 9.562-21.344 21.344-21.344 21.344 9.562 21.344 21.344z" fill="#FFCE54" p-id="690"></path><path d="M490.658 714.684v287.992c0 11.75 9.562 21.31 21.342 21.31s21.344-9.56 21.344-21.31V714.684h-42.686z" fill="#434A54" p-id="691"></path><path d="M895.988 85.136h-21.344V64.014c0-11.782-9.532-21.328-21.308-21.328-11.782 0-21.344 9.546-21.344 21.328v21.124h-21.344c-11.782 0-21.312 9.546-21.312 21.328s9.532 21.328 21.312 21.328h21.344v21.342c0 11.782 9.562 21.328 21.344 21.328 11.778 0 21.308-9.546 21.308-21.328V127.792h21.344c11.782 0 21.344-9.546 21.344-21.328s-9.562-21.328-21.344-21.328z" fill="#FC6E51" p-id="692"></path><path d="M810.648 511.892h-21.312v-21.11c0-11.782-9.562-21.328-21.344-21.328s-21.344 9.546-21.344 21.328v21.11h-21.312c-11.782 0-21.34 9.562-21.34 21.342 0 11.766 9.558 21.328 21.34 21.328h21.312v21.312c0 11.81 9.562 21.374 21.344 21.374s21.344-9.562 21.344-21.374v-21.312h21.312c11.782 0 21.344-9.562 21.344-21.328 0-11.778-9.562-21.342-21.344-21.342z" fill="#ED5564" p-id="693"></path><path d="M213.352 469.126H192.008v-21.124c0-11.78-9.562-21.326-21.344-21.326-11.78 0-21.312 9.546-21.312 21.326v21.124H128.01c-11.78 0-21.342 9.546-21.342 21.328s9.562 21.328 21.342 21.328h21.344v21.342a21.3 21.3 0 0 0 21.312 21.312c11.782 0 21.344-9.532 21.344-21.312v-21.342h21.342c11.782 0 21.312-9.546 21.312-21.328s-9.532-21.328-21.312-21.328z" fill="#FC6E51" p-id="694"></path><path d="M213.352 42.466H192.008V21.358c0-11.782-9.562-21.344-21.344-21.344-11.78 0-21.312 9.562-21.312 21.344v21.11H128.01c-11.78 0-21.342 9.546-21.342 21.328 0 11.78 9.562 21.342 21.342 21.342h21.344v21.328c0 11.782 9.532 21.328 21.312 21.328 11.782 0 21.344-9.546 21.344-21.328V85.136h21.342c11.782 0 21.312-9.562 21.312-21.342s-9.532-21.328-21.312-21.328z" fill="#ED5564" p-id="695"></path><path d="M575.996 320.022c0-35.358-28.652-64.014-63.996-64.014-35.342 0-63.998 28.656-63.998 64.014v42.656h127.994v-42.656z" fill="#FFCE54" p-id="696"></path><path d="M448.002 362.678v448.004l42.656 42.654h42.686l42.652-42.654V362.678z" fill="#656D78" p-id="697"></path></svg>